<svg width="16.000000" height="16.000000" viewBox="0 0 16 16" fill="none" xmlns="http://www.w3.org/2000/svg" xmlns:xlink="http://www.w3.org/1999/xlink">
	<desc>
			Created with Pixso.
	</desc>
	<defs/>
	<path id="Rectangle 74" d="M3.71582 14.3333C2.3999 14.3333 1.33301 13.2666 1.33301 11.9507C1.33301 11.5458 1.43604 11.1476 1.63281 10.7936L5.75684 3.37054C6.12256 2.71252 6.7583 2.24823 7.49658 2.10065C7.82861 2.03418 8.1709 2.03418 8.50293 2.10065C9.24072 2.24823 9.87695 2.71252 10.2427 3.37054L14.3667 10.7936C14.563 11.1476 14.6665 11.5458 14.6665 11.9507C14.6665 13.2666 13.5996 14.3333 12.2837 14.3333L3.71582 14.3333Z" stroke="#F3473B" stroke-opacity="1.000000" stroke-width="1.000000"/>
	<path id="Line" d="M8 8.66663L8 5.99994" stroke="#F3473B" stroke-opacity="1.000000" stroke-width="1.000000" stroke-linejoin="round" stroke-linecap="round"/>
	<path id="Line" d="M8 11L8 10.6667" stroke="#F3473B" stroke-opacity="1.000000" stroke-width="1.000000" stroke-linejoin="round" stroke-linecap="round"/>
</svg>
