<svg width="20" height="20" viewBox="0 0 20 20" fill="none" xmlns="http://www.w3.org/2000/svg">
<path d="M1.66699 8.71371C1.66699 6.89281 3.14313 5.41667 4.96404 5.41667V5.41667C5.4916 5.41667 5.9684 5.10226 6.17622 4.61736L6.33366 4.25C6.78865 3.18835 7.83256 2.5 8.9876 2.5H10.0003H11.013C12.1681 2.5 13.212 3.18835 13.667 4.25L13.8244 4.61736C14.0322 5.10227 14.5091 5.41667 15.0366 5.41667V5.41667C16.8575 5.41667 18.3337 6.8928 18.3337 8.71371V12.0833C18.3337 14.8448 16.0951 17.0833 13.3337 17.0833H6.66699C3.90557 17.0833 1.66699 14.8448 1.66699 12.0833V8.71371Z" stroke="white"/>
<circle cx="2.5" cy="2.5" r="2.5" transform="matrix(-1 0 0 1 12.5 7.91663)" stroke="white"/>
</svg>
