<svg width="15.000000" height="18.000000" viewBox="0 0 15 18" fill="none" xmlns="http://www.w3.org/2000/svg" xmlns:xlink="http://www.w3.org/1999/xlink">
	<desc>
			Created with Pixso.
	</desc>
	<defs/>
	<path id="Vector" d="M7.5 5.5C3.63403 5.5 0.5 4.38071 0.5 3C0.5 1.61929 3.63403 0.5 7.5 0.5C11.366 0.5 14.5 1.61929 14.5 3C14.5 4.38071 11.366 5.5 7.5 5.5ZM14.5 7C14.5 8.38071 11.366 9.5 7.5 9.5C3.63403 9.5 0.5 8.38071 0.5 7M14.5 11C14.5 12.3807 11.366 13.5 7.5 13.5C3.63403 13.5 0.5 12.3807 0.5 11M14.5 3L14.5 15C14.5 16.3807 11.366 17.5 7.5 17.5C3.63403 17.5 0.5 16.3807 0.5 15L0.5 3" stroke="#28282C" stroke-opacity="1.000000" stroke-width="1.000000"/>
</svg>
