<svg width="24.000000" height="24.000000" viewBox="0 0 24 24" fill="none" xmlns="http://www.w3.org/2000/svg" xmlns:xlink="http://www.w3.org/1999/xlink">
	<desc>
			Created with Pixso.
	</desc>
	<defs>
		<clipPath id="clip47_1628">
			<rect id="Property 1=thumb-up" width="24.000000" height="24.000000" fill="white" fill-opacity="0"/>
		</clipPath>
	</defs>
	<rect id="Property 1=thumb-up" width="24.000000" height="24.000000" fill="#FFFFFF" fill-opacity="0"/>
	<g clip-path="url(#clip47_1628)">
		<path id="Vector" d="M2 9L5 9L5 21L2 21C1.73486 21 1.48047 20.8947 1.29297 20.7072C1.10547 20.5195 1 20.2653 1 20L1 10C1 9.73474 1.10547 9.48047 1.29297 9.29285C1.48047 9.10535 1.73486 9 2 9ZM7.29297 7.70703L13.6929 1.30701C13.7778 1.22168 13.8911 1.16992 14.0112 1.16138C14.1313 1.15271 14.2505 1.18774 14.3472 1.26001L15.2002 1.90002C15.437 2.07788 15.6157 2.3219 15.7144 2.6012C15.8125 2.88062 15.8262 3.18298 15.7529 3.46997L14.6001 8L21 8C21.5303 8 22.0391 8.21069 22.4141 8.58582C22.7891 8.96082 23 9.4696 23 10L23 12.104C23.0005 12.3654 22.9492 12.6243 22.8501 12.866L19.7549 20.381C19.6797 20.5642 19.5513 20.7208 19.3867 20.8311C19.2217 20.9413 19.0283 21.0001 18.8301 21L8 21C7.73486 21 7.48047 20.8947 7.29297 20.7072C7.10547 20.5195 7 20.2653 7 20L7 8.41394C7 8.1488 7.10547 7.89453 7.29297 7.70703Z" fill="#FFFFFF" fill-opacity="1.000000" fill-rule="nonzero"/>
	</g>
</svg>
