<svg width="189.000000" height="48.000000" viewBox="0 0 189 48" fill="none" xmlns="http://www.w3.org/2000/svg" xmlns:xlink="http://www.w3.org/1999/xlink">
	<desc>
			Created with Pixso.
	</desc>
	<defs/>
	<path id="Vector" d="M0.913086 47L32.1089 19.5361L63.3042 9.10986L94.5 39.231L125.696 7.26953L156.891 41.7524L188.087 1" stroke="#9FA4AF" stroke-opacity="1.000000" stroke-width="1.000000"/>
	<path id="Vector" d="M1.82617 47C1.82617 47.5522 1.41748 48 0.913086 48C0.408691 48 0 47.5522 0 47C0 46.4478 0.408691 46 0.913086 46C1.41748 46 1.82617 46.4478 1.82617 47Z" fill="#366ADC" fill-opacity="1.000000" fill-rule="evenodd"/>
	<path id="Vector" d="M32.9453 19.5435C32.9453 20.0957 32.5366 20.5435 32.0322 20.5435C31.5278 20.5435 31.1191 20.0957 31.1191 19.5435C31.1191 18.9912 31.5278 18.5435 32.0322 18.5435C32.5366 18.5435 32.9453 18.9912 32.9453 19.5435Z" fill="#366ADC" fill-opacity="1.000000" fill-rule="evenodd"/>
	<path id="Vector" d="M63.9131 9C63.9131 9.55225 63.5044 10 63 10C62.4956 10 62.0869 9.55225 62.0869 9C62.0869 8.44775 62.4956 8 63 8C63.5044 8 63.9131 8.44775 63.9131 9Z" fill="#366ADC" fill-opacity="1.000000" fill-rule="evenodd"/>
	<path id="Vector" d="M95.4131 39.1523C95.4131 39.7046 95.0044 40.1523 94.5 40.1523C93.9956 40.1523 93.5869 39.7046 93.5869 39.1523C93.5869 38.6001 93.9956 38.1523 94.5 38.1523C95.0044 38.1523 95.4131 38.6001 95.4131 39.1523Z" fill="#366ADC" fill-opacity="1.000000" fill-rule="evenodd"/>
	<path id="Vector" d="M126.595 6.90039C126.595 7.45264 126.187 7.90039 125.682 7.90039C125.178 7.90039 124.769 7.45264 124.769 6.90039C124.769 6.34814 125.178 5.90039 125.682 5.90039C126.187 5.90039 126.595 6.34814 126.595 6.90039Z" fill="#366ADC" fill-opacity="1.000000" fill-rule="evenodd"/>
	<path id="Vector" d="M157.957 42C157.957 42.5522 157.548 43 157.043 43C156.539 43 156.13 42.5522 156.13 42C156.13 41.4478 156.539 41 157.043 41C157.548 41 157.957 41.4478 157.957 42Z" fill="#366ADC" fill-opacity="1.000000" fill-rule="evenodd"/>
	<path id="Vector" d="M189 1C189 1.55225 188.591 2 188.087 2C187.583 2 187.174 1.55225 187.174 1C187.174 0.447754 187.583 0 188.087 0C188.591 0 189 0.447754 189 1Z" fill="#366ADC" fill-opacity="1.000000" fill-rule="evenodd"/>
</svg>
