<svg width="16.000000" height="16.000000" viewBox="0 0 16 16" fill="none" xmlns="http://www.w3.org/2000/svg" xmlns:xlink="http://www.w3.org/1999/xlink">
	<desc>
			Created with Pixso.
	</desc>
	<defs/>
	<path id="Rectangle 74" d="M11.7217 4C12.6602 4 13.1963 5.07178 12.6328 5.82275C12.2222 6.37061 12 7.03674 12 7.72156L12 12.6666C12 13.7712 11.1045 14.6666 10 14.6666L6 14.6666C4.89551 14.6666 4 13.7712 4 12.6666L4 7.72156C4 7.03674 3.77783 6.37061 3.36719 5.82275C2.80371 5.07178 3.33984 4 4.27832 4L11.7217 4Z" stroke="#28282C" stroke-opacity="1.000000" stroke-width="1.000000"/>
	<path id="Line" d="M9.33301 7.33337L9.33301 11.3334" stroke="#28282C" stroke-opacity="1.000000" stroke-width="1.000000" stroke-linejoin="round" stroke-linecap="round"/>
	<path id="Line" d="M6.66699 7.33337L6.66699 11.3334" stroke="#28282C" stroke-opacity="1.000000" stroke-width="1.000000" stroke-linejoin="round" stroke-linecap="round"/>
	<path id="Rectangle 4" d="M5.33301 4L5.54395 3.36755C5.81592 2.5509 6.58057 2 7.44141 2L8.55811 2C9.41895 2 10.1831 2.5509 10.4556 3.36755L10.6665 4" stroke="#28282C" stroke-opacity="1.000000" stroke-width="1.000000" stroke-linecap="round"/>
</svg>
