<svg width="16.000000" height="16.000000" viewBox="0 0 16 16" fill="none" xmlns="http://www.w3.org/2000/svg" xmlns:xlink="http://www.w3.org/1999/xlink">
	<desc>
			Created with Pixso.
	</desc>
	<defs/>
	<path id="Union" d="M13.1323 4.14807Q12.9883 3.92432 12.7959 3.73181L12.0718 3.00769Q11.876 2.81201 11.6484 2.66663L11.6479 2.6665Q11.4575 2.54504 11.2446 2.45874Q11.0298 2.37158 10.8066 2.32593Q10.5605 2.27576 10.3047 2.27588Q10.0483 2.276 9.80273 2.32629L9.80273 2.32629Q9.5791 2.37207 9.36426 2.45935Q9.15137 2.5459 8.96094 2.6676L8.96094 2.6676Q8.7334 2.81323 8.5376 3.00903L3.08398 8.47095Q2.85254 8.70276 2.6709 8.96863L2.6709 8.96863L2.6709 8.96863Q2.48779 9.23645 2.35498 9.53882Q2.22314 9.83948 2.15039 10.1538L2.15039 10.1539Q2.07715 10.4694 2.06348 10.7986L2.02295 11.7607Q2.01318 11.9877 2.05322 12.2056Q2.08643 12.3892 2.15527 12.5663Q2.22412 12.7444 2.32324 12.9036L2.32324 12.9036Q2.43213 13.0779 2.57715 13.2295Q2.72314 13.3821 2.89404 13.4987L2.89404 13.4987L2.89404 13.4987L2.89404 13.4988Q3.04785 13.6036 3.22168 13.6794Q3.396 13.7556 3.57861 13.7969L3.57861 13.7969Q3.79395 13.8456 4.02002 13.8456L4.91211 13.8457Q5.22119 13.8457 5.52051 13.7921L5.521 13.792Q5.90332 13.7235 6.27002 13.5676Q6.49121 13.4736 6.6958 13.3522Q7.08594 13.1206 7.41699 12.7891L12.8184 7.24719Q13.0088 7.052 13.1499 6.82617L13.1499 6.82617L13.1499 6.82605Q13.2695 6.63428 13.354 6.42017Q13.4385 6.20654 13.4819 5.98474L13.4819 5.98474Q13.5303 5.73975 13.5283 5.48486Q13.5269 5.2301 13.4756 4.98584L13.4756 4.9856L13.4756 4.98535Q13.4292 4.76428 13.3423 4.55188Q13.2549 4.33887 13.1328 4.14856L13.1323 4.14807ZM11.3652 3.71533L12.0894 4.43945Q12.2109 4.56128 12.3003 4.70337L12.3003 4.70361Q12.3682 4.81152 12.417 4.93103Q12.4678 5.0542 12.4951 5.18225L12.4951 5.1825Q12.5278 5.3335 12.5288 5.49133Q12.5298 5.64917 12.499 5.80066Q12.4731 5.92908 12.4243 6.05286Q12.377 6.17297 12.3105 6.28162L12.3105 6.28186L12.3105 6.2821Q12.2231 6.42542 12.103 6.54871L11.46 7.20813L8.60693 4.35498L9.24463 3.71619Q9.36865 3.59229 9.51318 3.50208L9.51318 3.50195Q9.62109 3.43481 9.74023 3.38635Q9.86475 3.33582 9.99414 3.30847L9.99414 3.30847L9.99414 3.30847Q10.146 3.27637 10.3047 3.27625Q10.4639 3.27625 10.6157 3.30823L10.6157 3.30823L10.6157 3.30823Q10.7451 3.33545 10.8696 3.38586Q10.9888 3.43433 11.0967 3.50146L11.0967 3.50159Q11.2417 3.59167 11.3652 3.71533ZM7.90039 5.06262L10.7622 7.92432L6.70166 12.0906Q6.50293 12.2896 6.27197 12.4388L6.27197 12.4388L6.27197 12.4388Q6.08594 12.559 5.87939 12.6469Q5.60645 12.7629 5.32178 12.8112L5.32178 12.8112L5.32129 12.8113Q5.11963 12.8453 4.9126 12.8452L4.02051 12.8452Q3.89795 12.8452 3.78271 12.8171L3.78223 12.817Q3.7002 12.797 3.62109 12.7626Q3.53906 12.7266 3.46533 12.6775Q3.37549 12.6173 3.29883 12.5372Q3.22266 12.4575 3.1665 12.3656Q3.12012 12.2897 3.0874 12.2053Q3.05664 12.1254 3.04004 12.0425L3.04004 12.0424Q3.0166 11.9254 3.02148 11.8027L3.06201 10.8407Q3.07178 10.6057 3.12402 10.3806L3.12402 10.3801Q3.17627 10.1556 3.27051 9.9408Q3.36523 9.72485 3.49609 9.53357L3.49609 9.53357Q3.62598 9.34363 3.79102 9.1781L7.90039 5.06262ZM9.09521 13.2966C9.09521 13.5767 9.31494 13.7968 9.59521 13.7968L13.6763 13.7968C13.9561 13.7968 14.1758 13.5767 14.1758 13.2966C14.1758 13.0165 13.9561 12.7964 13.6763 12.7964L9.59521 12.7964C9.31494 12.7964 9.09521 13.0165 9.09521 13.2966Z" clip-rule="evenodd" fill="#28282C" fill-opacity="1.000000" fill-rule="evenodd"/>
</svg>
