<svg width="24.000000" height="24.000000" viewBox="0 0 24 24" fill="none" xmlns="http://www.w3.org/2000/svg" xmlns:xlink="http://www.w3.org/1999/xlink">
	<desc>
			Created with Pixso.
	</desc>
	<defs>
		<clipPath id="clip47_1622">
			<rect id="Property 1=map" width="24.000000" height="24.000000" fill="white" fill-opacity="0"/>
		</clipPath>
	</defs>
	<rect id="Property 1=map" width="24.000000" height="24.000000" fill="#FFFFFF" fill-opacity="0"/>
	<g clip-path="url(#clip47_1622)">
		<path id="Vector" d="M18.3638 17.3639L12 23.7279L5.63623 17.3639C4.37744 16.1052 3.52002 14.5016 3.17285 12.7557C2.82568 11.0099 3.00391 9.20032 3.68506 7.55579C4.36621 5.91125 5.52002 4.50574 7 3.51672C8.47998 2.52783 10.2202 2 12 2C13.7803 2 15.52 2.52783 17 3.51672C18.48 4.50574 19.6338 5.91125 20.3149 7.55579C20.9961 9.20032 21.1743 11.0099 20.8271 12.7557C20.48 14.5016 19.6226 16.1052 18.3638 17.3639ZM12 12.9999C12.5303 12.9999 13.0391 12.7892 13.4141 12.4142C13.7891 12.0391 14 11.5304 14 10.9999C14 10.4695 13.7891 9.96082 13.4141 9.58569C13.0391 9.21069 12.5303 8.99988 12 8.99988C11.4697 8.99988 10.9609 9.21069 10.5859 9.58569C10.2109 9.96082 10 10.4695 10 10.9999C10 11.5304 10.2109 12.0391 10.5859 12.4142C10.9609 12.7892 11.4697 12.9999 12 12.9999Z" fill="#FFFFFF" fill-opacity="1.000000" fill-rule="nonzero"/>
	</g>
</svg>
