<svg width="32.000000" height="32.000000" viewBox="0 0 32 32" fill="none" xmlns="http://www.w3.org/2000/svg" xmlns:xlink="http://www.w3.org/1999/xlink">
	<desc>
			Created with Pixso.
	</desc>
	<defs/>
	<path id="bg" d="M27 0L5 0C2.23877 0 0 2.23877 0 5L0 27C0 29.7612 2.23877 32 5 32L27 32C29.7612 32 32 29.7612 32 27L32 5C32 2.23877 29.7612 0 27 0Z" fill="#F00073" fill-opacity="1.000000" fill-rule="evenodd"/>
	<path id="Subtract" d="M21.3257 24L10.6743 24C9.20264 24 8 22.7974 8 21.3257L8 10.6743C8 9.20264 9.20264 8 10.6743 8L21.3257 8C22.7974 8 24 9.20264 24 10.6743L24 21.3257C24 22.8042 22.8042 24 21.3257 24ZM20.9106 11.7617C21.3462 11.7617 21.6992 11.4087 21.6992 10.9731C21.6992 10.5376 21.3462 10.1846 20.9106 10.1846C20.4751 10.1846 20.1221 10.5376 20.1221 10.9731C20.1221 11.4087 20.4751 11.7617 20.9106 11.7617ZM16.0034 20.1099C14.9058 20.1099 13.8745 19.6826 13.0991 18.9072C12.3237 18.1318 11.8965 17.1006 11.8965 16.0029C11.8965 14.9058 12.3237 13.874 13.0991 13.0986C13.8745 12.3232 14.9058 11.8965 16.0034 11.8965C17.1006 11.8965 18.1323 12.3232 18.9077 13.0986C19.6831 13.874 20.1099 14.9058 20.1099 16.0029C20.1099 17.1006 19.6831 18.1318 18.9077 18.9072C18.1255 19.6826 17.1006 20.1099 16.0034 20.1099ZM16.0034 12.77C14.2227 12.77 12.7705 14.2158 12.7705 16.0029C12.7705 17.7837 14.2158 19.2358 16.0034 19.2358C17.7842 19.2358 19.2363 17.7905 19.2363 16.0029C19.2295 14.2222 17.7842 12.77 16.0034 12.77Z" clip-rule="evenodd" fill="#FFFFFF" fill-opacity="1.000000" fill-rule="evenodd"/>
</svg>
