<svg width="24.000000" height="24.000000" viewBox="0 0 24 24" fill="none" xmlns="http://www.w3.org/2000/svg" xmlns:xlink="http://www.w3.org/1999/xlink">
	<desc>
			Created with Pixso.
	</desc>
	<defs>
		<clipPath id="clip47_1450">
			<rect id="Icon 24px" width="24.000000" height="24.000000" fill="white" fill-opacity="0"/>
		</clipPath>
	</defs>
	<rect id="Icon 24px" width="24.000000" height="24.000000" fill="#FFFFFF" fill-opacity="0"/>
	<g clip-path="url(#clip47_1450)">
		<path id="Vector" d="M3 10L21 10L21 20.004C21 20.554 20.5552 21 20.0068 21L3.99316 21C3.8623 20.9999 3.73291 20.974 3.6123 20.9238C3.4917 20.8738 3.38232 20.8003 3.29004 20.7078C3.19775 20.6154 3.125 20.5055 3.0752 20.3848C3.02539 20.264 2.99951 20.1346 3 20.004L3 10ZM9 12L9 14L15 14L15 12L9 12ZM2 4C2 3.448 2.45508 3 2.99219 3L21.0078 3C21.5562 3 22 3.44397 22 4L22 8L2 8L2 4Z" fill="#FFFFFF" fill-opacity="1.000000" fill-rule="nonzero"/>
	</g>
</svg>
