<svg width="14.999756" height="18.499756" viewBox="0 0 14.9998 18.4998" fill="none" xmlns="http://www.w3.org/2000/svg" xmlns:xlink="http://www.w3.org/1999/xlink">
	<desc>
			Created with Pixso.
	</desc>
	<defs/>
	<path id="Rectangle 74" d="M4.5 17.9998C2.29077 17.9998 0.5 16.2089 0.5 13.9998L0.5 4.5C0.5 2.29086 2.29077 0.5 4.5 0.5L7.5 0.5L9.18823 0.5C9.78174 0.5 10.3445 0.763641 10.7246 1.21964L14.0361 5.19366C14.3357 5.55309 14.4998 6.00615 14.4998 6.47403L14.4998 9.24988L14.4998 13.9998C14.4998 16.2089 12.709 17.9998 10.4998 17.9998L4.5 17.9998Z" stroke="#28282C" stroke-opacity="1.000000" stroke-width="1.000000"/>
	<path id="Vector 139" d="M10.125 0.937515L10.125 3.74995C10.125 4.85452 11.0205 5.74995 12.125 5.74995L14.0625 5.74995" stroke="#28282C" stroke-opacity="1.000000" stroke-width="1.000000" stroke-linecap="round"/>
	<path id="Vector 133" d="M4.00024 9.24988L11.0002 9.24988" stroke="#28282C" stroke-opacity="1.000000" stroke-width="1.000000" stroke-linecap="round"/>
	<path id="Vector 134" d="M4.00024 13.6248L7.50024 13.6248" stroke="#28282C" stroke-opacity="1.000000" stroke-width="1.000000" stroke-linecap="round"/>
</svg>
