<svg width="17.765381" height="17.268873" viewBox="0 0 17.7654 17.2689" fill="none" xmlns="http://www.w3.org/2000/svg" xmlns:xlink="http://www.w3.org/1999/xlink">
	<desc>
			Created with Pixso.
	</desc>
	<defs/>
	<path id="Union" d="M16.8029 3.6396C16.707 3.49056 16.595 3.35192 16.4667 3.22369L13.9749 0.731841C13.8444 0.601347 13.7031 0.487639 13.5513 0.390719C13.4242 0.309678 13.2897 0.240375 13.1477 0.182808C13.0044 0.12473 12.8583 0.0804911 12.7094 0.0500898C12.5455 0.0166321 12.3782 -6.48499e-05 12.2075 0C12.0367 6.48499e-05 11.8695 0.0168829 11.7057 0.0504541L11.7056 0.0504599L11.7056 0.0504665C11.5566 0.0809803 11.4106 0.125332 11.2673 0.18352C11.1255 0.241181 10.991 0.31057 10.8641 0.391685L10.864 0.391715L10.864 0.391734C10.7122 0.48877 10.571 0.602585 10.4407 0.733179L1.14075 10.0472C0.98645 10.2017 0.848633 10.3676 0.727539 10.5448L0.727539 10.5449C0.605469 10.7234 0.500244 10.9135 0.411865 11.115C0.323975 11.3155 0.255737 11.5205 0.207031 11.73L0.207031 11.73L0.207031 11.7301C0.158203 11.9404 0.129272 12.1553 0.119995 12.3748L0.00183105 15.1838C-0.0045166 15.3352 0.00561523 15.4835 0.0321045 15.6288L0.0321045 15.6288C0.0544434 15.7512 0.0883789 15.8714 0.134033 15.9894C0.180054 16.1082 0.236084 16.2206 0.302246 16.3267L0.302246 16.3268C0.374756 16.443 0.459351 16.5516 0.556152 16.6526C0.653687 16.7544 0.759277 16.8441 0.873169 16.9218C0.975586 16.9918 1.08472 17.0521 1.20056 17.1026C1.31665 17.1533 1.4353 17.1924 1.55664 17.2198L1.55737 17.22L1.55847 17.2203C1.70178 17.2526 1.84863 17.2687 1.99927 17.2688L4.75134 17.2689C4.95728 17.2689 5.15991 17.251 5.35938 17.2154L5.35974 17.2153L5.36072 17.2151C5.61536 17.1695 5.86487 17.0947 6.10913 16.9908C6.25586 16.9284 6.39722 16.857 6.5332 16.7764L6.53479 16.7754L6.53479 16.7754C6.79504 16.621 7.0354 16.4333 7.2561 16.2123L16.4893 6.73907C16.6161 6.60897 16.7264 6.46864 16.8206 6.31809C16.9005 6.19014 16.9686 6.05481 17.0249 5.91209C17.0811 5.76962 17.1237 5.62448 17.1527 5.47668C17.1848 5.3133 17.2003 5.14665 17.1992 4.97675C17.1981 4.80685 17.1805 4.64043 17.1464 4.47747L17.1464 4.47741C17.1154 4.33001 17.0709 4.18544 17.0129 4.04372C16.9548 3.90174 16.8849 3.76729 16.8033 3.64038L16.8029 3.6396ZM13.2683 1.43948L15.7601 3.93134C15.8413 4.01253 15.9116 4.10054 15.9712 4.19534L15.9713 4.19549C16.0164 4.2674 16.0553 4.34322 16.0879 4.42296C16.1215 4.50505 16.1476 4.58879 16.166 4.67415L16.166 4.67419L16.166 4.67422C16.1877 4.77493 16.199 4.87791 16.1997 4.98317C16.2003 5.08843 16.1904 5.19155 16.1699 5.29253L16.1697 5.29385C16.1523 5.37902 16.1274 5.46266 16.0951 5.54476C16.0635 5.6249 16.0256 5.70121 15.9814 5.77368L15.9813 5.77373C15.9231 5.86935 15.8539 5.95829 15.7737 6.04056L13.9435 7.91829L9.30798 3.2828L11.1477 1.44029C11.2302 1.35768 11.3197 1.2863 11.4163 1.22614C11.488 1.18134 11.5637 1.14278 11.6434 1.11043C11.7263 1.07674 11.8109 1.05078 11.8971 1.03256C11.9984 1.01115 12.1021 1.00042 12.2079 1.00038C12.3137 1.00034 12.4172 1.01099 12.5187 1.03233C12.6049 1.05049 12.6895 1.07638 12.7723 1.11C12.8521 1.14228 12.9277 1.18079 12.9996 1.22552C13.0962 1.28561 13.1857 1.35693 13.2683 1.43948ZM8.60144 3.99044L13.2455 8.63447L6.54053 15.5138C6.40808 15.6464 6.26501 15.7624 6.11133 15.8618L6.11084 15.8621C5.98694 15.9422 5.85608 16.0115 5.71826 16.0701C5.53625 16.1475 5.35034 16.2023 5.16052 16.2344L5.1593 16.2346C5.02527 16.2572 4.88928 16.2685 4.75146 16.2685L1.99927 16.2684C1.91785 16.2684 1.83875 16.259 1.76196 16.2403L1.76135 16.2402C1.70654 16.2268 1.65271 16.2086 1.60022 16.1857C1.54541 16.1617 1.49341 16.1334 1.44458 16.1007L1.44397 16.1003C1.38416 16.0602 1.32874 16.0136 1.27771 15.9603C1.22693 15.9072 1.18274 15.8501 1.14539 15.7888C1.11438 15.7381 1.08813 15.6847 1.06641 15.6284C1.04578 15.5751 1.02991 15.5209 1.0188 15.4656C1.00317 15.3876 0.997192 15.3077 1.00061 15.2259L1.11877 12.4169C1.12537 12.2601 1.14612 12.1066 1.18091 11.9564L1.18091 11.9563L1.18091 11.9563C1.2157 11.8066 1.2644 11.6602 1.32715 11.5171C1.39038 11.3731 1.46545 11.2373 1.55261 11.1098L1.55273 11.1098C1.63916 10.9832 1.73755 10.8647 1.84778 10.7543L8.60144 3.99044ZM10.644 16.6954C10.644 16.9755 10.864 17.1956 11.1439 17.1956L17.2656 17.1956C17.5455 17.1956 17.7654 16.9755 17.7654 16.6954C17.7654 16.4153 17.5455 16.1952 17.2656 16.1952L11.1439 16.1952C10.864 16.1952 10.644 16.4153 10.644 16.6954Z" clip-rule="evenodd" fill="#366ADC" fill-opacity="1.000000" fill-rule="evenodd"/>
</svg>
