<svg width="32.000000" height="32.000000" viewBox="0 0 32 32" fill="none" xmlns="http://www.w3.org/2000/svg" xmlns:xlink="http://www.w3.org/1999/xlink">
	<desc>
			Created with Pixso.
	</desc>
	<defs/>
	<path id="bg" d="M27 0L5 0C2.23877 0 0 2.23877 0 5L0 27C0 29.7612 2.23877 32 5 32L27 32C29.7612 32 32 29.7612 32 27L32 5C32 2.23877 29.7612 0 27 0Z" fill="#26A4E3" fill-opacity="1.000000" fill-rule="evenodd"/>
	<path id="telegram" d="M8.1001 15.7085C12.395 13.8369 15.2588 12.6035 16.6919 12.0073C20.7832 10.3057 21.6333 10.0098 22.1875 10C22.3096 9.99805 22.582 10.0283 22.7588 10.1714C22.9077 10.2925 22.9487 10.4556 22.9683 10.5703C22.9878 10.6851 23.0122 10.9463 22.9927 11.1504C22.771 13.48 21.812 19.1333 21.3237 21.7427C21.1172 22.8467 20.7104 23.2168 20.3169 23.2534C19.4614 23.332 18.8115 22.688 17.9829 22.1445C16.686 21.2944 15.9536 20.7656 14.6948 19.936C13.2402 18.9775 14.1836 18.4507 15.0122 17.5894C15.2295 17.3643 18.999 13.9355 19.0718 13.6245C19.0811 13.5854 19.0894 13.4404 19.0034 13.3638C18.917 13.2876 18.79 13.3135 18.6982 13.3345C18.5684 13.3638 16.4966 14.7329 12.4839 17.4419C11.896 17.8457 11.3633 18.0425 10.8862 18.0322C10.3604 18.0205 9.34814 17.7349 8.59619 17.4902C7.67334 17.1904 6.93994 17.0317 7.00391 16.5225C7.03711 16.2568 7.40234 15.9858 8.1001 15.7085Z" fill="#FFFFFF" fill-opacity="1.000000" fill-rule="nonzero"/>
</svg>
