<svg width="12.000000" height="12.000000" viewBox="0 0 12 12" fill="none" xmlns="http://www.w3.org/2000/svg" xmlns:xlink="http://www.w3.org/1999/xlink">
	<desc>
			Created with Pixso.
	</desc>
	<defs/>
	<path id="telegram" d="M0.824951 5.16595C4.04614 3.47253 6.19409 2.35608 7.26892 1.81665C10.3375 0.27655 10.9751 0.0090332 11.3907 6.10352e-05C11.4822 -0.00177002 11.6865 0.0255737 11.819 0.155212C11.9307 0.264648 11.9614 0.412476 11.9762 0.516296C11.991 0.620056 12.0093 0.856445 11.9946 1.04114C11.8284 3.14948 11.1089 8.26575 10.7428 10.6271C10.5879 11.6263 10.283 11.9612 9.98767 11.9941C9.34595 12.0653 8.85864 11.4824 8.23718 10.9908C7.26465 10.2215 6.71533 9.74268 5.77124 8.992C4.6803 8.12451 5.38757 7.64777 6.00928 6.86853C6.172 6.66461 8.99927 3.56158 9.05396 3.28009C9.06079 3.24487 9.06714 3.11365 9.00256 3.04431C8.93787 2.97504 8.84253 2.99872 8.7738 3.01758C8.67627 3.04431 7.12256 4.28339 4.11292 6.73486C3.67188 7.10028 3.27246 7.27832 2.91467 7.26898C2.52014 7.25867 1.76111 6.99982 1.19702 6.7785C0.505005 6.50708 -0.0450439 6.36359 0.00292969 5.90259C0.027832 5.66254 0.30188 5.41699 0.824951 5.16595Z" fill="#FFFFFF" fill-opacity="1.000000" fill-rule="nonzero"/>
</svg>
