<svg width="19.000000" height="17.000000" viewBox="0 0 19 17" fill="none" xmlns="http://www.w3.org/2000/svg" xmlns:xlink="http://www.w3.org/1999/xlink">
	<desc>
			Created with Pixso.
	</desc>
	<defs/>
	<path id="Vector" d="M0.5 14.5C0.5 15.6045 1.39551 16.5 2.5 16.5L16.5 16.5C17.6045 16.5 18.5 15.6045 18.5 14.5L18.5 3L18.5 2.5C18.5 1.39551 17.6045 0.5 16.5 0.5L2.5 0.5C1.39551 0.5 0.5 1.39551 0.5 2.5L0.5 3L0.5 14.5ZM0.5 3L18.5 3M12 10L15 10M12 7L16 7M6.5 10C8.01416 10 9.33203 10.8413 10.0112 12.082C10.5415 13.0508 9.60449 14 8.5 14L4.5 14C3.39551 14 2.4585 13.0508 2.98877 12.082C3.66797 10.8413 4.98584 10 6.5 10ZM6.5 8.5C5.67139 8.5 5 7.82861 5 7C5 6.17139 5.67139 5.5 6.5 5.5C7.32861 5.5 8 6.17139 8 7C8 7.82861 7.32861 8.5 6.5 8.5Z" stroke="#366ADC" stroke-opacity="1.000000" stroke-width="1.000000"/>
</svg>
