<svg width="32.000000" height="32.000000" viewBox="0 0 32 32" fill="none" xmlns="http://www.w3.org/2000/svg" xmlns:xlink="http://www.w3.org/1999/xlink">
	<desc>
			Created with Pixso.
	</desc>
	<defs/>
	<path id="bg" d="M0 5C0 2.23877 2.23877 0 5 0L27 0C29.7612 0 32 2.23877 32 5L32 27C32 29.7612 29.7612 32 27 32L5 32C2.23877 32 0 29.7612 0 27L0 5Z" fill="#0077FF" fill-opacity="1.000000" fill-rule="nonzero"/>
	<path id="Vector" d="M16.7114 21C11.2446 21 8.12793 17.2529 8 11.0078L10.749 11.0078C10.8374 15.5879 12.8511 17.5254 14.4497 17.9258L14.4497 11.0078L17.0308 11.0078L17.0308 14.9551C18.6055 14.7871 20.2676 12.9854 20.8271 11L23.4004 11C23.1909 12.0278 22.7715 13.0015 22.1694 13.8594C21.5669 14.7178 20.7944 15.4424 19.8999 15.9878C20.8984 16.4858 21.7798 17.1899 22.4863 18.0537C23.1934 18.9175 23.709 19.9219 24 21L21.1626 21C20.5557 19.1025 19.0371 17.6294 17.0308 17.4292L17.0308 21L16.7192 21L16.7114 21Z" fill="#FFFFFF" fill-opacity="1.000000" fill-rule="nonzero"/>
</svg>
